{"title":"Ghost.Adventures.S04E24.Hales.Bar.Marina.&amp;.Dam.HDTV.XviD-tNe.avi","uid":6355776,"size":366680064,"categoryP":"video","categoryS":"tv_shows","magnet":"?xt=urn:btih:8a3102f394c3c386029b0349cdadafe09186bb46&amp;dn=Ghost.Adventures.S04E24.Hales.Bar.Marina.%26.Dam.HDTV.XviD-tNe.avi&amp;tr=udp%3A%2F%2Ftracker.openbittorrent.com%3A80&amp;tr=udp%3A%2F%2Fopen.demonii.com%3A1337&amp;tr=udp%3A%2F%2Ftracker.coppersurfer.tk%3A6969&amp;tr=udp%3A%2F%2Fexodus.desync.com%3A6969","seeders":1,"leechers":1,"uploader":"trialNerror","files":1,"time":1304144785,"description":"Format : AVI\nFormat/Info : Audio Video Interleave\nFile size : 350 MiB\nDuration : 42mn 28s\nOverall bit rate : 1 151 Kbps\nWriting application : VirtualDubMod 1.5.10.2 (build 2542/release)\nWriting library : VirtualDubMod build 2542/release\n\nVideo\nID : 0\nFormat : MPEG-4 Visual\nFormat profile : Advanced Simple@L5\nFormat settings, BVOP : Yes\nFormat settings, QPel : No\nFormat settings, GMC : No warppoints\nFormat settings, Matrix : Default (H.263)\nCodec ID : XVID\nCodec ID/Hint : XviD\nDuration : 42mn 28s\nBit rate : 1 026 Kbps\nWidth : 624 pixels\nHeight : 352 pixels\nDisplay aspect ratio : 16:9\nFrame rate : 29.970 fps\nColor space : YUV\nChroma subsampling : 4:2:0\nBit depth : 8 bits\nScan type : Progressive\nBits/(Pixel*Frame) : 0.156\nStream size : 312 MiB (89%)\nWriting library : XviD 58\n\nAudio\nID : 1\nFormat : MPEG Audio\nFormat version : Version 1\nFormat profile : Layer 3\nMode : Joint stereo\nMode extension : MS Stereo\nCodec ID : 55\nCodec ID/Hint : MP3\nDuration : 42mn 28s\nBit rate mode : Variable\nBit rate : 112 Kbps\nChannel(s) : 2 channels\nSampling rate : 48.0 KHz\nStream size : 33.6 MiB (10%)\nAlignment : Aligned on interleaves\nInterleave, duration : 24 ms (0.72 video frame)\nInterleave, preload duration : 593 ms\nWriting library : LAME3.99 (alpha)\n","torrent":{"xt":"urn:btih:8a3102f394c3c386029b0349cdadafe09186bb46","amp;dn":"Ghost.Adventures.S04E24.Hales.Bar.Marina.%26.Dam.HDTV.XviD-tNe.avi","amp;tr":["udp%3A%2F%2Ftracker.openbittorrent.com%3A80","udp%3A%2F%2Fopen.demonii.com%3A1337","udp%3A%2F%2Ftracker.coppersurfer.tk%3A6969","udp%3A%2F%2Fexodus.desync.com%3A6969"],"infoHash":"8a3102f394c3c386029b0349cdadafe09186bb46","infoHashBuffer":{"type":"Buffer","data":[138,49,2,243,148,195,195,134,2,155,3,73,205,173,175,224,145,134,187,70]},"announce":[],"urlList":[]}}